<svg width="50" height="50" viewBox="0 0 50 50" fill="none" xmlns="http://www.w3.org/2000/svg">
<path d="M9.375 46.875H28.125C28.9535 46.8742 29.7479 46.5447 30.3338 45.9588C30.9197 45.3729 31.2492 44.5785 31.25 43.75V39.0625H28.125V43.75H9.375V6.25H28.125V10.9375H31.25V6.25C31.2492 5.42145 30.9197 4.62708 30.3338 4.0412C29.7479 3.45533 28.9535 3.12583 28.125 3.125H9.375C8.54645 3.12583 7.75208 3.45533 7.16621 4.0412C6.58033 4.62708 6.25083 5.42145 6.25 6.25V43.75C6.25083 44.5785 6.58033 45.3729 7.16621 45.9588C7.75208 46.5447 8.54645 46.8742 9.375 46.875Z" fill="black"/>
<path d="M32.1656 32.1656L37.7688 26.5625H15.625V23.4375H37.7688L32.1656 17.8344L34.375 15.625L43.75 25L34.375 34.375L32.1656 32.1656Z" fill="black"/>
</svg>
