<svg width="22" height="16" viewBox="0 0 22 16" fill="none" xmlns="http://www.w3.org/2000/svg">
<path d="M9.63851 14.6591C9.73488 14.7871 9.86382 14.8917 10.0142 14.964C10.1647 15.0363 10.332 15.0741 10.502 15.0741C10.6719 15.0741 10.8393 15.0363 10.9897 14.964C11.1401 14.8917 11.269 14.7871 11.3654 14.6591L20.8192 2.17245C20.9286 2.02843 20.9928 1.85974 21.0047 1.68471C21.0167 1.50968 20.9759 1.335 20.8869 1.17966C20.7979 1.02432 20.6641 0.894246 20.4999 0.803583C20.3357 0.71292 20.1475 0.66513 19.9557 0.665406H1.04817C0.856833 0.666129 0.669327 0.714533 0.505822 0.805414C0.342316 0.896294 0.208996 1.02621 0.1202 1.1812C0.0314036 1.33618 -0.00950963 1.51037 0.00186008 1.68502C0.0132298 1.85968 0.0764522 2.02819 0.184728 2.17245L9.63851 14.6591Z" fill="#F7F6F6"/>
</svg>
